<svg width="33" height="33" viewBox="0 0 33 33" fill="none" xmlns="http://www.w3.org/2000/svg">
<circle cx="16.5" cy="1.65077" r="1" transform="rotate(45 16.5 1.65077)" fill="#D7D9F5"/>
<circle cx="21.4498" cy="6.60052" r="1" transform="rotate(45 21.4498 6.60052)" fill="#D7D9F5"/>
<circle cx="26.3995" cy="11.5503" r="1" transform="rotate(45 26.3995 11.5503)" fill="#D7D9F5"/>
<circle cx="31.3492" cy="16.5" r="1" transform="rotate(45 31.3492 16.5)" fill="#D7D9F5"/>
<circle cx="11.5503" cy="6.60052" r="1" transform="rotate(45 11.5503 6.60052)" fill="#D7D9F5"/>
<circle cx="16.5" cy="11.5503" r="1" transform="rotate(45 16.5 11.5503)" fill="#D7D9F5"/>
<circle cx="21.4498" cy="16.5" r="1" transform="rotate(45 21.4498 16.5)" fill="#D7D9F5"/>
<circle cx="26.3995" cy="21.4498" r="1" transform="rotate(45 26.3995 21.4498)" fill="#D7D9F5"/>
<circle cx="6.60049" cy="11.5503" r="1" transform="rotate(45 6.60049 11.5503)" fill="#D7D9F5"/>
<circle cx="11.5503" cy="16.5" r="1" transform="rotate(45 11.5503 16.5)" fill="#D7D9F5"/>
<circle cx="16.5" cy="21.4498" r="1" transform="rotate(45 16.5 21.4498)" fill="#D7D9F5"/>
<circle cx="21.4498" cy="26.3995" r="1" transform="rotate(45 21.4498 26.3995)" fill="#D7D9F5"/>
<circle cx="1.65076" cy="16.5" r="1" transform="rotate(45 1.65076 16.5)" fill="#D7D9F5"/>
<circle cx="6.60049" cy="21.4498" r="1" transform="rotate(45 6.60049 21.4498)" fill="#D7D9F5"/>
<circle cx="11.5503" cy="26.3995" r="1" transform="rotate(45 11.5503 26.3995)" fill="#D7D9F5"/>
<circle cx="16.5" cy="31.3493" r="1" transform="rotate(45 16.5 31.3493)" fill="#D7D9F5"/>
</svg>
