<svg width="27" height="27" viewBox="0 0 27 27" fill="none" xmlns="http://www.w3.org/2000/svg">
<circle cx="13.5" cy="1.37845" r="0.807438" transform="rotate(45 13.5 1.37845)" fill="#D7D9F5"/>
<circle cx="17.4966" cy="5.37507" r="0.807438" transform="rotate(45 17.4966 5.37507)" fill="#D7D9F5"/>
<circle cx="21.4932" cy="9.37167" r="0.807438" transform="rotate(45 21.4932 9.37167)" fill="#D7D9F5"/>
<circle cx="25.4899" cy="13.3683" r="0.807438" transform="rotate(45 25.4899 13.3683)" fill="#D7D9F5"/>
<circle cx="9.50336" cy="5.37507" r="0.807438" transform="rotate(45 9.50336 5.37507)" fill="#D7D9F5"/>
<circle cx="13.5" cy="9.37167" r="0.807438" transform="rotate(45 13.5 9.37167)" fill="#D7D9F5"/>
<circle cx="17.4966" cy="13.3683" r="0.807438" transform="rotate(45 17.4966 13.3683)" fill="#D7D9F5"/>
<circle cx="21.4932" cy="17.3649" r="0.807438" transform="rotate(45 21.4932 17.3649)" fill="#D7D9F5"/>
<circle cx="5.50677" cy="9.37167" r="0.807438" transform="rotate(45 5.50677 9.37167)" fill="#D7D9F5"/>
<circle cx="9.50336" cy="13.3683" r="0.807438" transform="rotate(45 9.50336 13.3683)" fill="#D7D9F5"/>
<circle cx="13.5" cy="17.3649" r="0.807438" transform="rotate(45 13.5 17.3649)" fill="#D7D9F5"/>
<circle cx="17.4966" cy="21.3615" r="0.807438" transform="rotate(45 17.4966 21.3615)" fill="#D7D9F5"/>
<circle cx="1.51013" cy="13.3683" r="0.807438" transform="rotate(45 1.51013 13.3683)" fill="#D7D9F5"/>
<circle cx="5.50677" cy="17.3649" r="0.807438" transform="rotate(45 5.50677 17.3649)" fill="#D7D9F5"/>
<circle cx="9.50336" cy="21.3615" r="0.807438" transform="rotate(45 9.50336 21.3615)" fill="#D7D9F5"/>
<circle cx="13.5" cy="25.3581" r="0.807438" transform="rotate(45 13.5 25.3581)" fill="#D7D9F5"/>
</svg>
