<svg width="1454" height="1454" viewBox="0 0 1454 1454" fill="none" xmlns="http://www.w3.org/2000/svg">
<g opacity="0.27">
<path opacity="0.05" d="M727 1454C1128.51 1454 1454 1128.51 1454 727C1454 325.489 1128.51 0 727 0C325.489 0 0 325.489 0 727C0 1128.51 325.489 1454 727 1454Z" fill="white"/>
<path opacity="0.05" d="M727 1334.12C1062.3 1334.12 1334.12 1062.3 1334.12 727C1334.12 391.696 1062.3 119.878 727 119.878C391.696 119.878 119.878 391.696 119.878 727C119.878 1062.3 391.696 1334.12 727 1334.12Z" fill="white"/>
<path opacity="0.05" d="M727 1218.11C998.234 1218.11 1218.11 998.234 1218.11 727C1218.11 455.766 998.234 235.888 727 235.888C455.766 235.888 235.888 455.766 235.888 727C235.888 998.234 455.766 1218.11 727 1218.11Z" fill="white"/>
<path opacity="0.05" d="M727 1109.83C938.434 1109.83 1109.83 938.434 1109.83 727C1109.83 515.566 938.434 344.165 727 344.165C515.566 344.165 344.165 515.566 344.165 727C344.165 938.434 515.566 1109.83 727 1109.83Z" fill="white"/>
<path opacity="0.05" d="M727 986.09C870.091 986.09 986.09 870.091 986.09 727C986.09 583.909 870.091 467.91 727 467.91C583.909 467.91 467.91 583.909 467.91 727C467.91 870.091 583.909 986.09 727 986.09Z" fill="white"/>
</g>
</svg>
