<svg width="64" height="64" viewBox="0 0 64 64" fill="none" xmlns="http://www.w3.org/2000/svg">
<circle cx="1.54773" cy="1.54785" r="1.5" fill="#D0D4ED"/>
<circle cx="16.5477" cy="1.54785" r="1.5" fill="#D0D4ED"/>
<circle cx="31.5477" cy="1.54785" r="1.5" fill="#D0D4ED"/>
<circle cx="46.5477" cy="1.54785" r="1.5" fill="#D0D4ED"/>
<circle cx="61.5477" cy="1.54785" r="1.5" fill="#D0D4ED"/>
<circle cx="1.54773" cy="16.5479" r="1.5" fill="#D0D4ED"/>
<circle cx="16.5477" cy="16.5479" r="1.5" fill="#D0D4ED"/>
<circle cx="31.5477" cy="16.5479" r="1.5" fill="#D0D4ED"/>
<circle cx="46.5477" cy="16.5479" r="1.5" fill="#D0D4ED"/>
<circle cx="61.5477" cy="16.5479" r="1.5" fill="#D0D4ED"/>
<circle cx="1.54773" cy="31.5479" r="1.5" fill="#D0D4ED"/>
<circle cx="16.5477" cy="31.5479" r="1.5" fill="#D0D4ED"/>
<circle cx="31.5477" cy="31.5479" r="1.5" fill="#D0D4ED"/>
<circle cx="46.5477" cy="31.5479" r="1.5" fill="#D0D4ED"/>
<circle cx="61.5477" cy="31.5479" r="1.5" fill="#D0D4ED"/>
<circle cx="1.54773" cy="46.5479" r="1.5" fill="#D0D4ED"/>
<circle cx="16.5477" cy="46.5479" r="1.5" fill="#D0D4ED"/>
<circle cx="31.5477" cy="46.5479" r="1.5" fill="#D0D4ED"/>
<circle cx="46.5477" cy="46.5479" r="1.5" fill="#D0D4ED"/>
<circle cx="61.5477" cy="46.5479" r="1.5" fill="#D0D4ED"/>
<circle cx="1.54773" cy="61.5479" r="1.5" fill="#D0D4ED"/>
<circle cx="16.5477" cy="61.5479" r="1.5" fill="#D0D4ED"/>
<circle cx="31.5477" cy="61.5479" r="1.5" fill="#D0D4ED"/>
<circle cx="46.5477" cy="61.5479" r="1.5" fill="#D0D4ED"/>
<circle cx="61.5477" cy="61.5479" r="1.5" fill="#D0D4ED"/>
</svg>
