<svg width="46" height="46" viewBox="0 0 46 46" fill="none" xmlns="http://www.w3.org/2000/svg">
<circle cx="1.11916" cy="1.39125" r="1.07143" fill="#D0D4ED"/>
<circle cx="11.8335" cy="1.39125" r="1.07143" fill="#D0D4ED"/>
<circle cx="22.5477" cy="1.39125" r="1.07143" fill="#D0D4ED"/>
<circle cx="33.262" cy="1.39125" r="1.07143" fill="#D0D4ED"/>
<circle cx="43.9762" cy="1.39125" r="1.07143" fill="#D0D4ED"/>
<circle cx="1.11916" cy="12.1056" r="1.07143" fill="#D0D4ED"/>
<circle cx="11.8335" cy="12.1056" r="1.07143" fill="#D0D4ED"/>
<circle cx="22.5477" cy="12.1056" r="1.07143" fill="#D0D4ED"/>
<circle cx="33.262" cy="12.1056" r="1.07143" fill="#D0D4ED"/>
<circle cx="43.9763" cy="12.1056" r="1.07143" fill="#D0D4ED"/>
<circle cx="1.11916" cy="22.82" r="1.07143" fill="#D0D4ED"/>
<circle cx="11.8335" cy="22.82" r="1.07143" fill="#D0D4ED"/>
<circle cx="22.5477" cy="22.82" r="1.07143" fill="#D0D4ED"/>
<circle cx="33.262" cy="22.82" r="1.07143" fill="#D0D4ED"/>
<circle cx="43.9763" cy="22.82" r="1.07143" fill="#D0D4ED"/>
<circle cx="1.11916" cy="33.5343" r="1.07143" fill="#D0D4ED"/>
<circle cx="11.8335" cy="33.5338" r="1.07143" fill="#D0D4ED"/>
<circle cx="22.5477" cy="33.5343" r="1.07143" fill="#D0D4ED"/>
<circle cx="33.262" cy="33.5343" r="1.07143" fill="#D0D4ED"/>
<circle cx="43.9763" cy="33.5343" r="1.07143" fill="#D0D4ED"/>
<circle cx="1.11916" cy="44.2482" r="1.07143" fill="#D0D4ED"/>
<circle cx="11.8335" cy="44.2482" r="1.07143" fill="#D0D4ED"/>
<circle cx="22.5477" cy="44.2482" r="1.07143" fill="#D0D4ED"/>
<circle cx="33.262" cy="44.2487" r="1.07143" fill="#D0D4ED"/>
<circle cx="43.9763" cy="44.2482" r="1.07143" fill="#D0D4ED"/>
</svg>
