<svg width="12" height="9" viewBox="0 0 12 9" fill="none" xmlns="http://www.w3.org/2000/svg">
<path d="M1.82822 4.98186C1.62262 4.81318 1.35472 4.72166 1.07825 4.72565C0.801776 4.72965 0.537184 4.82887 0.33755 5.00341C0.137915 5.17795 0.018004 5.4149 0.00186842 5.66673C-0.0142672 5.91856 0.0745663 6.16665 0.250551 6.36122L2.68279 8.69013C2.78462 8.78758 2.90698 8.86527 3.04254 8.91851C3.17809 8.97176 3.32404 8.99947 3.47162 8.99998C3.61842 9.00077 3.7639 8.97462 3.89941 8.92311C4.03492 8.8716 4.1577 8.79577 4.26046 8.70012L11.6886 1.70339C11.7894 1.60889 11.8687 1.49721 11.9221 1.37473C11.9755 1.25226 12.0019 1.12138 11.9999 0.989587C11.9979 0.857789 11.9674 0.727647 11.9102 0.606593C11.8531 0.485538 11.7703 0.375941 11.6667 0.284059C11.5631 0.192176 11.4407 0.119808 11.3065 0.0710865C11.1722 0.0223647 11.0288 -0.00175676 10.8843 9.95479e-05C10.7398 0.00195585 10.5972 0.0297534 10.4645 0.0819051C10.3318 0.134057 10.2117 0.209542 10.111 0.304049L3.48258 6.56112L1.82822 4.98186Z" fill="white"/>
</svg>
