<svg width="28" height="21" viewBox="0 0 28 21" fill="none" xmlns="http://www.w3.org/2000/svg">
<path fill-rule="evenodd" clip-rule="evenodd" d="M23.8676 0.352783H4.0147C3.13715 0.352783 2.29559 0.701438 1.67506 1.32196C1.05454 1.94249 0.705881 2.78405 0.705881 3.66161V16.8969C0.705881 17.7745 1.05454 18.616 1.67506 19.2365C2.29559 19.8571 3.13715 20.2057 4.0147 20.2057H23.8676C24.7452 20.2057 25.5868 19.8571 26.2073 19.2365C26.8278 18.616 27.1765 17.7745 27.1765 16.8969V3.66161C27.1765 2.78405 26.8278 1.94249 26.2073 1.32196C25.5868 0.701438 24.7452 0.352783 23.8676 0.352783ZM23.8676 16.8969H4.0147V10.2793H23.8676V16.8969ZM23.8676 6.97043H4.0147V3.66161H23.8676V6.97043ZM8.97794 15.2425H12.2868C12.7255 15.2425 13.1463 15.0682 13.4566 14.7579C13.7668 14.4476 13.9412 14.0269 13.9412 13.5881C13.9412 13.1493 13.7668 12.7285 13.4566 12.4183C13.1463 12.108 12.7255 11.9337 12.2868 11.9337H8.97794C8.53916 11.9337 8.11838 12.108 7.80812 12.4183C7.49786 12.7285 7.32353 13.1493 7.32353 13.5881C7.32353 14.0269 7.49786 14.4476 7.80812 14.7579C8.11838 15.0682 8.53916 15.2425 8.97794 15.2425Z" fill="black"/>
</svg>
