<svg width="18" height="18" viewBox="0 0 18 18" fill="none" xmlns="http://www.w3.org/2000/svg">
<path d="M0.352734 17.576C-0.117578 17.1029 -0.117578 16.3388 0.352734 15.8656L15.7943 0.424053C16.0908 0.0778894 16.5562 -0.0728944 16.9993 0.0336947C17.4425 0.140284 17.7884 0.486256 17.895 0.929369C18.0016 1.37248 17.8508 1.83795 17.5047 2.13439L2.06307 17.576C1.58996 18.0463 0.825852 18.0463 0.352734 17.576Z" fill="#E8E9FF"/>
<path d="M0.352734 0.424053C0.825852 -0.0462583 1.58996 -0.0462583 2.06307 0.424053L17.5047 15.8656C17.8508 16.1621 18.0016 16.6276 17.895 17.0707C17.7884 17.5138 17.4425 17.8597 16.9993 17.9663C16.5562 18.0729 16.0908 17.9221 15.7943 17.576L0.352734 2.13439C-0.117578 1.66128 -0.117578 0.897172 0.352734 0.424053Z" fill="#E8E9FF"/>
</svg>
