<svg width="177" height="48" viewBox="0 0 177 48" fill="none" xmlns="http://www.w3.org/2000/svg">
<g clip-path="url(#clip0)">
<path fill-rule="evenodd" clip-rule="evenodd" d="M14.6 22.2002C14.6 20.5365 15.6439 19.2002 16.9663 19.2002C18.2886 19.2002 19.3557 20.5365 19.3326 22.2002C19.3326 23.8639 18.2886 25.2002 16.9663 25.2002C15.6672 25.2002 14.6 23.8639 14.6 22.2002ZM23.0674 22.2002C23.0674 20.5365 24.1114 19.2002 25.4337 19.2002C26.7328 19.2002 27.8 20.5365 27.8 22.2002C27.8 23.8639 26.7561 25.2002 25.4337 25.2002C24.1346 25.2002 23.0674 23.8639 23.0674 22.2002Z" fill="white"/>
<path fill-rule="evenodd" clip-rule="evenodd" d="M37.7604 0H5.18374C2.43662 0 0.200012 2.22692 0.200012 4.96218V37.3979C0.200012 40.1332 2.43662 42.36 5.18374 42.36H32.7523L31.4639 37.9304L34.5757 40.7867L37.5173 43.4735L42.7685 48V4.96218C42.7441 2.22692 40.5075 0 37.7604 0ZM28.3764 31.3464C28.3764 31.3464 27.5012 30.3056 26.7719 29.41C29.9565 28.5144 31.1721 26.5537 31.1721 26.5537C30.1754 27.2072 29.2273 27.6672 28.3764 27.9818C27.1608 28.4902 25.9939 28.8048 24.8512 29.0227C22.5175 29.4584 20.3781 29.3374 18.5547 28.9985C17.169 28.7322 15.9779 28.3691 14.981 27.9576C14.4219 27.7398 13.8141 27.4735 13.2063 27.1346C13.1699 27.1104 13.1334 27.0923 13.0969 27.0742C13.0605 27.0559 13.0241 27.0378 12.9876 27.0136C12.969 27.0043 12.954 26.9951 12.9411 26.9873C12.9204 26.9744 12.9054 26.9652 12.8903 26.9652C12.4527 26.7232 12.2096 26.5537 12.2096 26.5537C12.2096 26.5537 13.3765 28.4659 16.464 29.3857C15.7347 30.3056 14.8352 31.3706 14.8352 31.3706C9.46248 31.2012 7.42035 27.7156 7.42035 27.7156C7.42035 19.9939 10.9211 13.7246 10.9211 13.7246C14.4219 11.1346 17.7282 11.2073 17.7282 11.2073L17.9713 11.4977C13.5954 12.7322 11.6018 14.6444 11.6018 14.6444C11.6018 14.6444 12.1367 14.354 13.0362 13.9667C15.6374 12.8291 17.7038 12.5386 18.5547 12.4417L18.6092 12.4326C18.7319 12.4118 18.8407 12.3934 18.968 12.3934C20.451 12.1997 22.1285 12.1513 23.8789 12.3449C26.1884 12.6112 28.6681 13.2889 31.1964 14.6444C31.1964 14.6444 29.2759 12.8291 25.143 11.5946L25.4834 11.2073C25.4834 11.2073 28.814 11.1346 32.2904 13.7246C32.2904 13.7246 35.7912 19.9939 35.7912 27.7156C35.7912 27.7144 35.7855 27.7228 35.774 27.7399C35.5671 28.0489 33.4665 31.186 28.3764 31.3464ZM57.0146 10.3601H65.0858C69.4131 10.3601 73.4731 12.5628 73.4488 17.5975V24.8108C73.4488 29.7488 69.3889 31.9032 65.0616 31.879H56.9902V26.7715H65.256C67.128 26.7715 67.9789 25.8275 67.9789 24.4236V17.7186C67.9789 16.3147 67.0794 15.4433 65.256 15.4433H62.3874V24.2058L57.0146 19.3888V10.3601ZM107.387 24.8108V17.404C107.387 14.7413 112.2 14.1361 113.659 16.7988L118.108 15.0076C116.358 11.1831 113.173 10.0696 110.523 10.0696C106.196 10.0696 101.917 12.5628 101.917 17.404V24.8108C101.917 29.7005 106.196 32.1452 110.426 32.1452C113.149 32.1452 116.406 30.814 118.205 27.3283L113.44 25.1497C112.273 28.127 107.387 27.4009 107.387 24.8108ZM89.81 16.4114C89.883 17.4523 91.0012 18.0575 92.6787 18.4206C96.5198 19.1226 100.361 20.4539 100.118 25.7065C99.9477 29.8699 95.5474 32.1452 91.5847 32.1452C89.0078 32.1452 86.2606 30.8381 84.2428 28.2481L87.695 25.0288C89.8586 27.643 94.6236 27.764 94.7695 25.4645C94.8181 24.2542 92.8489 23.5522 91.0742 23.3101C87.5978 22.7776 84.4374 20.5748 84.4374 16.4842C84.4374 12.2723 88.2784 10.0454 92.2411 10.0454C94.8424 10.0454 97.3707 10.7716 99.6073 13.4826L96.0337 16.2179C93.7728 13.8215 89.9073 13.9183 89.81 16.4114ZM76.3904 31.8547H81.836V10.3601H76.3904V31.8547ZM160.142 10.3601H168.213C172.54 10.3601 176.6 12.5628 176.6 17.5975V24.8108C176.6 29.7488 172.54 31.9032 168.213 31.879H160.117V26.7715H168.382C170.254 26.7715 171.105 25.8275 171.105 24.4236V17.7186C171.105 16.3147 170.206 15.4433 168.382 15.4433H165.514V24.2058L160.142 19.3888V10.3601ZM128.611 10.0696C124.137 10.0696 119.688 12.4902 119.688 17.4523V24.7867C119.688 29.7005 124.161 32.1695 128.659 32.1695C133.132 32.1695 137.581 29.7005 137.581 24.7867V17.4523C137.581 12.5143 133.083 10.0696 128.611 10.0696ZM128.635 27.1346C130.36 27.1346 132.111 26.3358 132.111 24.7867V17.4523C132.111 15.7822 130.312 15.0318 128.538 15.0318C126.836 15.0318 125.133 15.879 125.133 17.4523V24.7867C125.133 26.3843 126.884 27.1346 128.635 27.1346ZM157.126 17.4523C157.005 12.4176 153.553 10.3843 149.104 10.3843H140.474V31.879H145.993V25.053H146.965L151.974 31.879H158.78L152.896 24.4962C155.498 23.6732 157.126 21.422 157.126 17.4523ZM145.993 20.357H149.202C152.63 20.357 152.63 15.4433 149.202 15.4433H145.993V20.357Z" fill="white"/>
</g>
<defs>
<clipPath id="clip0">
<rect width="176.4" height="48" fill="white" transform="translate(0.200012)"/>
</clipPath>
</defs>
</svg>
