<svg width="22" height="9" viewBox="0 0 22 9" fill="none" xmlns="http://www.w3.org/2000/svg">
<path d="M20.9361 3.60417L20.0961 2.15417C20.1889 2.04566 20.2757 1.93216 20.3561 1.81417L20.4861 1.63417V1.58417L20.1461 1.36417L19.7061 1.02417L20.1761 1.33417L20.5161 1.55417C20.8198 1.09025 20.69 0.467928 20.2261 0.164172C19.7622 -0.139585 19.1398 -0.00974768 18.8361 0.454172L18.7361 0.584171C18.6461 0.714171 18.5161 0.884171 18.3361 1.10417C17.8421 1.6947 17.2966 2.24018 16.7061 2.73417C15.0285 4.16147 12.9083 4.96361 10.7061 5.00417C8.50385 4.96361 6.38367 4.16147 4.70608 2.73417C4.11382 2.25332 3.56504 1.72127 3.06608 1.14417C2.88608 0.884171 2.75608 0.754171 2.70608 0.624171L2.60608 0.494172C2.30233 0.0302523 1.68 -0.0995851 1.21608 0.204172C0.752165 0.507928 0.622328 1.13025 0.926085 1.59417L1.70608 1.08417L0.926085 1.59417V1.64417L1.05608 1.82417L1.15608 1.96417L0.156085 3.61417C-0.0409747 3.92416 -0.0522231 4.31723 0.126787 4.63798C0.305797 4.95873 0.646246 5.15553 1.01353 5.15056C1.38082 5.14558 1.71582 4.93965 1.88608 4.61417L2.51608 3.52417C2.77608 3.77417 3.05608 4.03417 3.37608 4.29417C3.85428 4.68203 4.35882 5.03622 4.88608 5.35417L4.20608 6.60417C4.00903 6.91416 3.99778 7.30723 4.17679 7.62798C4.3558 7.94874 4.69625 8.14553 5.06353 8.14056C5.43082 8.13558 5.76582 7.92965 5.93608 7.60417L6.70608 6.23417C7.66584 6.61851 8.67644 6.86106 9.70608 6.95417V7.95417C9.70608 8.50646 10.1538 8.95417 10.7061 8.95417C11.2584 8.95417 11.7061 8.50646 11.7061 7.95417V6.95417C12.6534 6.86268 13.5847 6.64752 14.4761 6.31417L15.2161 7.60417C15.3863 7.92965 15.7213 8.13558 16.0886 8.14056C16.4559 8.14553 16.7964 7.94874 16.9754 7.62798C17.1544 7.30723 17.1431 6.91416 16.9461 6.60417L16.2861 5.45417C16.8861 5.11004 17.4579 4.71881 17.9961 4.28417C18.2461 4.08417 18.4661 3.87417 18.6861 3.68417L19.2161 4.60417C19.3863 4.92965 19.7213 5.13558 20.0886 5.14056C20.4559 5.14553 20.7964 4.94874 20.9754 4.62798C21.1544 4.30723 21.1431 3.91416 20.9461 3.60417H20.9361Z" fill="#C0C2E9"/>
</svg>
