<svg width="16" height="16" viewBox="0 0 16 16" fill="none" xmlns="http://www.w3.org/2000/svg">
<path d="M1.12871e-05 7.9558C-0.00227225 7.50013 0.342198 7.11739 0.795591 7.07182H15.116C15.6042 7.07182 16 7.46759 16 7.9558C16 8.44401 15.6042 8.83978 15.116 8.83978H0.795591C0.342198 8.79422 -0.00227225 8.41147 1.12871e-05 7.9558Z" fill="black"/>
<path d="M7.95575 -3.97169e-06C8.41143 -0.0022875 8.79417 0.342183 8.83973 0.795576V15.116C8.83973 15.6042 8.44396 16 7.95575 16C7.46755 16 7.07178 15.6042 7.07178 15.116V0.795576C7.11734 0.342183 7.50008 -0.0022875 7.95575 -3.97169e-06Z" fill="black"/>
</svg>
