<svg width="20" height="20" viewBox="0 0 20 20" fill="none" xmlns="http://www.w3.org/2000/svg">
<path d="M9.99548 19.2149H3.51654C2.67871 19.2291 1.89141 18.8154 1.42787 18.1173C1.14963 17.7186 1.00092 17.2439 1.00195 16.7577V11.8432C0.978175 11.5087 1.17364 11.1972 1.48521 11.0732C1.77783 10.9236 2.13314 10.9763 2.36982 11.2043C2.54788 11.3648 2.64666 11.5953 2.64012 11.835V16.7003C2.63296 16.9624 2.75171 17.2121 2.95956 17.372C3.09483 17.4787 3.2623 17.5365 3.43463 17.5358H16.4908C16.7297 17.5534 16.9643 17.4655 17.1328 17.2954C17.3014 17.1253 17.387 16.8899 17.3672 16.6512V11.8432C17.3582 11.5834 17.4731 11.3348 17.6766 11.1733C17.8802 11.0117 18.1484 10.9564 18.3993 11.0241C18.7325 11.1165 18.9717 11.4082 18.9972 11.7531C19.0009 11.7885 19.0009 11.8242 18.9972 11.8595V16.6839C18.9972 18.041 17.8971 19.1412 16.54 19.1412L9.99548 19.2149Z" fill="black" stroke="black" stroke-width="0.3"/>
<path d="M9.36479 12.3912V1.90698C9.3551 1.73654 9.3919 1.56667 9.47127 1.41553C9.65588 1.08956 10.0381 0.930373 10.3995 1.02894C10.7609 1.12751 11.0094 1.4587 11.003 1.83326V12.3912L11.1258 12.2929L13.1326 10.6548C13.4064 10.4437 13.7834 10.4273 14.0745 10.6138C14.3118 10.7504 14.4651 10.9964 14.4832 11.2696C14.5013 11.5427 14.3818 11.8068 14.1646 11.9735L10.8146 14.6519C10.4618 14.9399 9.95508 14.9399 9.60233 14.6519L6.21952 11.9653C5.8862 11.6837 5.83217 11.1902 6.09665 10.8432C6.23317 10.6732 6.4318 10.5647 6.64857 10.5417C6.86533 10.5186 7.08234 10.5829 7.25156 10.7203L8.70134 11.8834L9.36479 12.3912Z" fill="black" stroke="black" stroke-width="0.3"/>
</svg>
