<svg width="14" height="9" viewBox="0 0 14 9" fill="none" xmlns="http://www.w3.org/2000/svg">
<path fill-rule="evenodd" clip-rule="evenodd" d="M13.7907 0.320512C13.941 0.496199 14.0153 0.724388 13.9974 0.954876C13.9794 1.18536 13.8706 1.39927 13.6949 1.54952L5.33585 8.72311C4.90473 9.09061 4.2594 9.0481 3.88021 8.62723L0.228047 4.60897C0.0178477 4.37853 -0.0534458 4.05346 0.0410221 3.7562C0.13549 3.45894 0.381367 3.23466 0.686035 3.16784C0.990702 3.10102 1.30787 3.20182 1.51807 3.43226L4.71699 6.91882L12.5617 0.198483C12.7407 0.0512563 12.971 -0.0186307 13.2016 0.0042678C13.4322 0.0271663 13.6442 0.140965 13.7907 0.320512Z" fill="#0E1317"/>
</svg>
