<svg width="16" height="18" viewBox="0 0 16 18" fill="none" xmlns="http://www.w3.org/2000/svg">
<path fill-rule="evenodd" clip-rule="evenodd" d="M10.96 8.57868C12.5719 7.31603 13.2053 5.16993 12.5375 3.23438C11.8696 1.29882 10.0475 0 8 0C5.95247 0 4.13036 1.29882 3.46251 3.23438C2.79466 5.16993 3.42813 7.31603 5.04 8.57868C1.99965 9.78954 0.00337721 12.7301 0 16.0027V16.8027C0 17.2445 0.358172 17.6027 0.8 17.6027C1.24183 17.6027 1.6 17.2445 1.6 16.8027V16.0027C1.6 12.4681 4.46538 9.60268 8 9.60268C11.5346 9.60268 14.4 12.4681 14.4 16.0027V16.8027C14.4 17.2445 14.7582 17.6027 15.2 17.6027C15.6418 17.6027 16 17.2445 16 16.8027V16.0027C15.9966 12.7301 14.0003 9.78954 10.96 8.57868ZM4.8 4.80267C4.8 3.03536 6.23269 1.60267 8 1.60267C9.76731 1.60267 11.2 3.03536 11.2 4.80267C11.2 6.56998 9.76731 8.00267 8 8.00267C7.15131 8.00267 6.33738 7.66553 5.73726 7.06542C5.13714 6.4653 4.8 5.65137 4.8 4.80267Z" fill="white"/>
</svg>
