<svg width="22" height="20" viewBox="0 0 22 20" fill="none" xmlns="http://www.w3.org/2000/svg">
<path fill-rule="evenodd" clip-rule="evenodd" d="M19 2H18V1C18 0.447715 17.5523 0 17 0C16.4477 0 16 0.447715 16 1V2H6V1C6 0.447715 5.55228 0 5 0C4.44772 0 4 0.447715 4 1V2H3C1.34315 2 0 3.34315 0 5V17C0 18.6569 1.34315 20 3 20H19C20.6569 20 22 18.6569 22 17V5C22 3.34315 20.6569 2 19 2ZM2 5C2 4.44772 2.44772 4 3 4H19C19.5523 4 20 4.44772 20 5V6H2V5ZM20 17C20 17.5523 19.5523 18 19 18H3C2.44772 18 2 17.5523 2 17V8H20V17Z" fill="#7063FD"/>
<rect x="4" y="10" width="3" height="3" rx="0.8" fill="#7063FD"/>
<rect x="9" y="10" width="3" height="3" rx="0.8" fill="#7063FD"/>
</svg>
