<svg width="16" height="12" viewBox="0 0 16 12" fill="none" xmlns="http://www.w3.org/2000/svg">
<path fill-rule="evenodd" clip-rule="evenodd" d="M14.0654 0H13.8691H2.13094H1.93458C0.82707 0.126308 -0.0071333 1.06714 4.59884e-05 2.18181V9.45449C4.59884e-05 10.6595 0.976874 11.6363 2.18185 11.6363H13.8181C15.0231 11.6363 16 10.6595 16 9.45449V2.18181C16.0071 1.06714 15.1729 0.126308 14.0654 0ZM13.7309 1.45454L8.72727 6.45815C8.4436 6.74012 7.98548 6.74012 7.70182 6.45815L2.69821 1.45454H13.7309ZM13.8181 10.1818C14.2198 10.1818 14.5454 9.85615 14.5454 9.45449V2.47999L9.54179 7.4836C8.68996 8.33436 7.31 8.33436 6.45817 7.4836L1.45456 2.47999V9.45449C1.45456 9.85615 1.78017 10.1818 2.18183 10.1818H13.8181Z" fill="#0E1317"/>
</svg>
