<svg width="22" height="19" viewBox="0 0 22 19" fill="none" xmlns="http://www.w3.org/2000/svg">
<path fill-rule="evenodd" clip-rule="evenodd" d="M3 0H19C20.6569 0 22 1.34315 22 3V12C22 13.6569 20.6569 15 19 15H11.5L9.2 18.06C8.91672 18.4377 8.47214 18.66 8 18.66C7.52786 18.66 7.08328 18.4377 6.8 18.06L4.5 15H3C1.34315 15 0 13.6569 0 12V3C0 1.34315 1.34315 0 3 0ZM19 13C19.5523 13 20 12.5523 20 12V3C20 2.44772 19.5523 2 19 2H3C2.44772 2 2 2.44772 2 3V12C2 12.5523 2.44772 13 3 13H5.5L8 16.33L10.5 13H19Z" fill="#1B1A22"/>
<path d="M5 6H10C10.5523 6 11 5.55228 11 5C11 4.44772 10.5523 4 10 4H5C4.44772 4 4 4.44772 4 5C4 5.55228 4.44772 6 5 6Z" fill="#1B1A22"/>
<path d="M16 8H5C4.44772 8 4 8.44772 4 9C4 9.55228 4.44772 10 5 10H16C16.5523 10 17 9.55228 17 9C17 8.44772 16.5523 8 16 8Z" fill="#1B1A22"/>
</svg>
