<svg width="24" height="24" viewBox="0 0 24 24" fill="none" xmlns="http://www.w3.org/2000/svg">
<path fill-rule="evenodd" clip-rule="evenodd" d="M0 12C0 5.37258 5.37258 0 12 0C15.1826 0 18.2348 1.26428 20.4853 3.51472C22.7357 5.76516 24 8.8174 24 12C24 18.6274 18.6274 24 12 24C5.37258 24 0 18.6274 0 12ZM2.1818 12.0001C2.1818 17.4226 6.57755 21.8183 12 21.8183C17.4224 21.8183 21.8182 17.4226 21.8182 12.0001C21.8182 6.57772 17.4224 2.18197 12 2.18197C6.57755 2.18197 2.1818 6.57772 2.1818 12.0001Z" fill="#ED9002"/>
<path d="M16.3636 11.0617H13.0909V5.45443C13.0909 4.85194 12.6025 4.36353 12 4.36353C11.3975 4.36353 10.9091 4.85194 10.9091 5.45443V11.9999C10.9091 11.9999 10.9091 12.0544 10.9091 12.0763C10.9091 12.0981 10.9091 12.0763 10.9091 12.1526C10.9091 12.7551 11.3975 13.2435 12 13.2435H16.3636C16.9661 13.2435 17.4545 12.7551 17.4545 12.1526C17.4545 11.5501 16.9661 11.0617 16.3636 11.0617Z" fill="#ED9002"/>
</svg>
