<svg width="23" height="20" viewBox="0 0 23 20" fill="none" xmlns="http://www.w3.org/2000/svg">
<path fill-rule="evenodd" clip-rule="evenodd" d="M5.79 4H20.79C21.1319 3.99543 21.4595 4.13695 21.6906 4.38902C21.9217 4.64109 22.0342 4.97977 22 5.32L21 14.92C20.9438 15.5263 20.4389 15.9924 19.83 16H7.17C6.58791 15.9977 6.09293 15.5746 6 15L4 5.22L3.23 2H1C0.447715 2 0 1.55228 0 1C0 0.447715 0.447715 0 1 0H3.85C4.39442 0.0100229 4.86509 0.382463 5 0.91L5.79 4ZM7.83 14H19.11L19.91 6H6.23L7.83 14Z" fill="#060609"/>
<path d="M9.51001 20C10.3384 20 11.01 19.3284 11.01 18.5C11.01 17.6716 10.3384 17 9.51001 17C8.68158 17 8.01001 17.6716 8.01001 18.5C8.01001 19.3284 8.68158 20 9.51001 20Z" fill="#060609"/>
<path d="M16.51 20C17.3384 20 18.01 19.3284 18.01 18.5C18.01 17.6716 17.3384 17 16.51 17C15.6816 17 15.01 17.6716 15.01 18.5C15.01 19.3284 15.6816 20 16.51 20Z" fill="#060609"/>
</svg>
