<svg width="16" height="16" viewBox="0 0 16 16" fill="none" xmlns="http://www.w3.org/2000/svg">
<path fill-rule="evenodd" clip-rule="evenodd" d="M2.18182 16H13.8182C15.0232 16 16 15.0232 16 13.8182V6.54547C16 5.34049 15.0232 4.36365 13.8182 4.36365H12.3636V2.18183C12.3636 0.976849 11.3868 1.52588e-05 10.1818 1.52588e-05H5.81818C4.6132 1.52588e-05 3.63636 0.976849 3.63636 2.18183V4.36365H2.18182C0.976833 4.36365 0 5.34049 0 6.54547V13.8182C0 15.0232 0.976833 16 2.18182 16ZM5.09092 2.18183C5.09092 1.78017 5.41653 1.45456 5.8182 1.45456H10.1818C10.5835 1.45456 10.9091 1.78017 10.9091 2.18183V4.36365H5.09092V2.18183ZM1.45456 6.54547C1.45456 6.14381 1.78018 5.81819 2.18184 5.81819H13.8182C14.2199 5.81819 14.5455 6.14381 14.5455 6.54547V13.8182C14.5455 14.2199 14.2199 14.5455 13.8182 14.5455H2.18184C1.78018 14.5455 1.45456 14.2199 1.45456 13.8182V6.54547Z" fill="#0E1317"/>
<path fill-rule="evenodd" clip-rule="evenodd" d="M7.30904 11.0691C7.28925 11.1329 7.27705 11.1988 7.27268 11.2655V13.4473C7.27268 13.8489 7.59829 14.1746 7.99995 14.1746C8.40161 14.1746 8.72722 13.8489 8.72722 13.4473V11.2655C8.72722 11.2655 8.72722 11.2218 8.72722 11.2C9.76476 10.9505 10.4696 9.9872 10.3934 8.92281C10.3172 7.85843 9.48225 7.00535 8.41975 6.90626C7.35726 6.80717 6.37898 7.49114 6.10725 8.52307C5.83552 9.555 6.35008 10.6321 7.32359 11.0691H7.30904ZM8.21088 8.35637C8.61254 8.35637 8.93815 8.68198 8.93815 9.08364C8.93815 9.4853 8.61254 9.81091 8.21088 9.81091C7.80922 9.81091 7.4836 9.4853 7.4836 9.08364C7.4836 8.68198 7.80922 8.35637 8.21088 8.35637Z" fill="#0E1317"/>
</svg>
