<svg width="22" height="24" viewBox="0 0 22 24" fill="none" xmlns="http://www.w3.org/2000/svg">
<path fill-rule="evenodd" clip-rule="evenodd" d="M11.13 0.77002H10.87C7.9871 0.77002 5.22227 1.91525 3.18375 3.95377C1.14523 5.99229 0 8.75712 0 11.64C0.00543104 12.2618 0.508182 12.7646 1.13 12.77H9.71V20.23C9.71 20.7823 9.26229 21.23 8.71 21.23C8.15771 21.23 7.71 20.7823 7.71 20.23V18.73C7.71 18.1777 7.26228 17.73 6.71 17.73C6.15772 17.73 5.71 18.1777 5.71 18.73V20.23C5.71216 21.1225 6.11155 21.9676 6.79968 22.5359C7.48781 23.1042 8.39323 23.3366 9.27 23.17C10.7192 22.8586 11.7431 21.5619 11.71 20.08V12.77H20.87C21.4918 12.7646 21.9946 12.2618 22 11.64C22 8.75712 20.8548 5.99229 18.8162 3.95377C16.7777 1.91525 14.0129 0.77002 11.13 0.77002ZM2 10.77C2.44754 6.22914 6.26712 2.76859 10.83 2.77002H11.09C15.6529 2.76859 19.4725 6.22914 19.92 10.77H2Z" fill="#F15023"/>
</svg>
