<svg width="135" height="50" viewBox="0 0 135 50" fill="none" xmlns="http://www.w3.org/2000/svg">
<path d="M22 1.73205C23.8564 0.660254 26.1436 0.660254 28 1.73205L43.6506 10.7679C45.507 11.8397 46.6506 13.8205 46.6506 15.9641V34.0359C46.6506 36.1795 45.507 38.1603 43.6506 39.2321L28 48.2679C26.1436 49.3397 23.8564 49.3397 22 48.2679L6.34936 39.2321C4.49296 38.1603 3.34937 36.1795 3.34937 34.0359V15.9641C3.34937 13.8205 4.49296 11.8397 6.34937 10.7679L22 1.73205Z" fill="#FFAD32"/>
<path d="M18.2743 31.6702C17.9086 31.3022 17.9086 30.7079 18.2743 30.3399L30.2845 18.3298C30.515 18.0606 30.8771 17.9433 31.2217 18.0262C31.5664 18.1091 31.8354 18.3782 31.9183 18.7228C32.0012 19.0675 31.884 19.4295 31.6147 19.6601L19.6046 31.6702C19.2366 32.036 18.6423 32.036 18.2743 31.6702Z" fill="black" stroke="black" stroke-width="0.5"/>
<path d="M18.2743 18.33C18.6423 17.9642 19.2366 17.9642 19.6046 18.33L31.6147 30.3401C31.884 30.5707 32.0012 30.9327 31.9183 31.2774C31.8354 31.622 31.5664 31.8911 31.2217 31.974C30.8771 32.0569 30.515 31.9396 30.2845 31.6704L18.2743 19.6603C17.9086 19.2923 17.9086 18.698 18.2743 18.33Z" fill="black" stroke="black" stroke-width="0.5"/>
<path d="M66.464 29.544C65.3333 30.664 63.9573 31.224 62.336 31.224C60.7147 31.224 59.3387 30.664 58.208 29.544C57.088 28.4133 56.528 27.032 56.528 25.4C56.528 23.768 57.088 22.392 58.208 21.272C59.3387 20.1413 60.7147 19.576 62.336 19.576C63.9573 19.576 65.3333 20.1413 66.464 21.272C67.5947 22.392 68.16 23.768 68.16 25.4C68.16 27.032 67.5947 28.4133 66.464 29.544ZM59.76 28.04C60.4533 28.7227 61.312 29.064 62.336 29.064C63.36 29.064 64.2187 28.7227 64.912 28.04C65.6053 27.3467 65.952 26.4667 65.952 25.4C65.952 24.3333 65.6053 23.4533 64.912 22.76C64.2187 22.0667 63.36 21.72 62.336 21.72C61.312 21.72 60.4533 22.0667 59.76 22.76C59.0667 23.4533 58.72 24.3333 58.72 25.4C58.72 26.4667 59.0667 27.3467 59.76 28.04ZM74.0639 22.776C74.9385 22.776 75.6585 23.0693 76.2239 23.656C76.7999 24.2427 77.0879 25.0533 77.0879 26.088V31H75.0239V26.344C75.0239 25.8107 74.8799 25.4053 74.5919 25.128C74.3039 24.84 73.9199 24.696 73.4399 24.696C72.9065 24.696 72.4799 24.8613 72.1599 25.192C71.8399 25.5227 71.6799 26.0187 71.6799 26.68V31H69.6159V23H71.6799V23.896C72.1812 23.1493 72.9759 22.776 74.0639 22.776ZM80.5943 27.848C80.8716 28.8507 81.6236 29.352 82.8503 29.352C83.6396 29.352 84.2369 29.0853 84.6423 28.552L86.3063 29.512C85.5169 30.6533 84.3543 31.224 82.8183 31.224C81.4956 31.224 80.4343 30.824 79.6343 30.024C78.8343 29.224 78.4342 28.216 78.4342 27C78.4342 25.7947 78.8289 24.792 79.6183 23.992C80.4076 23.1813 81.4209 22.776 82.6583 22.776C83.8316 22.776 84.7969 23.1813 85.5543 23.992C86.3223 24.8027 86.7063 25.8053 86.7063 27C86.7063 27.2667 86.6796 27.5493 86.6263 27.848H80.5943ZM80.5623 26.248H84.6423C84.5249 25.704 84.2796 25.2987 83.9063 25.032C83.5436 24.7653 83.1276 24.632 82.6583 24.632C82.1036 24.632 81.6449 24.776 81.2823 25.064C80.9196 25.3413 80.6796 25.736 80.5623 26.248Z" fill="black"/>
<rect opacity="0.25" x="95.5" y="13.5" width="39" height="24" rx="2.5" stroke="#A4A8D3"/>
<path d="M107.328 28.856C107.128 29.056 106.888 29.156 106.608 29.156C106.328 29.156 106.088 29.056 105.888 28.856C105.688 28.656 105.588 28.416 105.588 28.136C105.588 27.856 105.688 27.616 105.888 27.416C106.088 27.216 106.328 27.116 106.608 27.116C106.888 27.116 107.128 27.216 107.328 27.416C107.528 27.616 107.628 27.856 107.628 28.136C107.628 28.416 107.528 28.656 107.328 28.856ZM112.147 21.92C111.299 21.856 110.875 22.196 110.875 22.94V23H112.147V24.488H110.875V29H109.327V24.488H108.463V23H109.327V22.94C109.327 22.092 109.563 21.448 110.035 21.008C110.507 20.568 111.211 20.376 112.147 20.432V21.92ZM116.816 23H118.364V29H116.816V28.328C116.44 28.888 115.844 29.168 115.028 29.168C114.372 29.168 113.828 28.948 113.396 28.508C112.972 28.068 112.76 27.46 112.76 26.684V23H114.308V26.492C114.308 26.892 114.416 27.2 114.632 27.416C114.848 27.624 115.136 27.728 115.496 27.728C115.896 27.728 116.216 27.604 116.456 27.356C116.696 27.108 116.816 26.736 116.816 26.24V23ZM123.118 22.832C123.774 22.832 124.314 23.052 124.738 23.492C125.17 23.932 125.386 24.54 125.386 25.316V29H123.838V25.508C123.838 25.108 123.73 24.804 123.514 24.596C123.298 24.38 123.01 24.272 122.65 24.272C122.25 24.272 121.93 24.396 121.69 24.644C121.45 24.892 121.33 25.264 121.33 25.76V29H119.782V23H121.33V23.672C121.706 23.112 122.302 22.832 123.118 22.832Z" fill="black"/>
</svg>
