<svg width="37" height="36" viewBox="0 0 37 36" fill="none" xmlns="http://www.w3.org/2000/svg">
<g opacity="0.35">
<circle cx="18.6274" cy="1.60706" r="1.13636" transform="rotate(45 18.6274 1.60706)" fill="black"/>
<circle cx="23.9843" cy="6.96399" r="1.13636" transform="rotate(45 23.9843 6.96399)" fill="black"/>
<circle cx="29.3412" cy="12.3207" r="1.13636" transform="rotate(45 29.3412 12.3207)" fill="black"/>
<circle cx="34.6981" cy="17.6776" r="1.13636" transform="rotate(45 34.6981 17.6776)" fill="black"/>
<circle cx="13.2706" cy="6.96399" r="1.13636" transform="rotate(45 13.2706 6.96399)" fill="black"/>
<circle cx="18.6274" cy="12.3207" r="1.13636" transform="rotate(45 18.6274 12.3207)" fill="black"/>
<circle cx="23.9843" cy="17.6776" r="1.13636" transform="rotate(45 23.9843 17.6776)" fill="black"/>
<circle cx="29.3412" cy="23.0346" r="1.13636" transform="rotate(45 29.3412 23.0346)" fill="black"/>
<circle cx="7.9137" cy="12.3207" r="1.13636" transform="rotate(45 7.9137 12.3207)" fill="black"/>
<circle cx="13.2706" cy="17.6776" r="1.13636" transform="rotate(45 13.2706 17.6776)" fill="black"/>
<circle cx="18.6274" cy="23.0346" r="1.13636" transform="rotate(45 18.6274 23.0346)" fill="black"/>
<circle cx="23.9843" cy="28.3915" r="1.13636" transform="rotate(45 23.9843 28.3915)" fill="black"/>
<circle cx="2.55682" cy="17.6776" r="1.13636" transform="rotate(45 2.55682 17.6776)" fill="black"/>
<circle cx="7.9137" cy="23.0346" r="1.13636" transform="rotate(45 7.9137 23.0346)" fill="black"/>
<circle cx="13.2706" cy="28.3915" r="1.13636" transform="rotate(45 13.2706 28.3915)" fill="black"/>
<circle cx="18.6274" cy="33.7482" r="1.13636" transform="rotate(45 18.6274 33.7482)" fill="black"/>
</g>
</svg>
