<svg width="37" height="36" viewBox="0 0 37 36" fill="none" xmlns="http://www.w3.org/2000/svg">
<g opacity="0.15">
<circle cx="18.6274" cy="1.10485" r="0.78125" transform="rotate(45 18.6274 1.10485)" fill="black"/>
<circle cx="24.1517" cy="6.62902" r="0.78125" transform="rotate(45 24.1517 6.62902)" fill="black"/>
<circle cx="29.676" cy="12.1534" r="0.78125" transform="rotate(45 29.676 12.1534)" fill="black"/>
<circle cx="35.2003" cy="17.6776" r="0.78125" transform="rotate(45 35.2003 17.6776)" fill="black"/>
<circle cx="13.1031" cy="6.62902" r="0.78125" transform="rotate(45 13.1031 6.62902)" fill="black"/>
<circle cx="18.6274" cy="12.1534" r="0.78125" transform="rotate(45 18.6274 12.1534)" fill="black"/>
<circle cx="24.1517" cy="17.6776" r="0.78125" transform="rotate(45 24.1517 17.6776)" fill="black"/>
<circle cx="29.676" cy="23.202" r="0.78125" transform="rotate(45 29.676 23.202)" fill="black"/>
<circle cx="7.57892" cy="12.1534" r="0.78125" transform="rotate(45 7.57892 12.1534)" fill="black"/>
<circle cx="13.1031" cy="17.6776" r="0.78125" transform="rotate(45 13.1031 17.6776)" fill="black"/>
<circle cx="18.6274" cy="23.202" r="0.78125" transform="rotate(45 18.6274 23.202)" fill="black"/>
<circle cx="24.1517" cy="28.7262" r="0.78125" transform="rotate(45 24.1517 28.7262)" fill="black"/>
<circle cx="2.05463" cy="17.6776" r="0.78125" transform="rotate(45 2.05463 17.6776)" fill="black"/>
<circle cx="7.57892" cy="23.202" r="0.78125" transform="rotate(45 7.57892 23.202)" fill="black"/>
<circle cx="13.1031" cy="28.7262" r="0.78125" transform="rotate(45 13.1031 28.7262)" fill="black"/>
<circle cx="18.6274" cy="34.2504" r="0.78125" transform="rotate(45 18.6274 34.2504)" fill="black"/>
</g>
</svg>
