<svg width="37" height="36" viewBox="0 0 37 36" fill="none" xmlns="http://www.w3.org/2000/svg">
<g opacity="0.35">
<circle cx="18.6274" cy="1.60706" r="1.13636" transform="rotate(45 18.6274 1.60706)" fill="white"/>
<circle cx="23.9844" cy="6.96399" r="1.13636" transform="rotate(45 23.9844 6.96399)" fill="white"/>
<circle cx="29.3412" cy="12.3207" r="1.13636" transform="rotate(45 29.3412 12.3207)" fill="white"/>
<circle cx="34.698" cy="17.6776" r="1.13636" transform="rotate(45 34.698 17.6776)" fill="white"/>
<circle cx="13.2705" cy="6.96399" r="1.13636" transform="rotate(45 13.2705 6.96399)" fill="white"/>
<circle cx="18.6274" cy="12.3207" r="1.13636" transform="rotate(45 18.6274 12.3207)" fill="white"/>
<circle cx="23.9844" cy="17.6776" r="1.13636" transform="rotate(45 23.9844 17.6776)" fill="white"/>
<circle cx="29.3412" cy="23.0346" r="1.13636" transform="rotate(45 29.3412 23.0346)" fill="white"/>
<circle cx="7.9137" cy="12.3207" r="1.13636" transform="rotate(45 7.9137 12.3207)" fill="white"/>
<circle cx="13.2705" cy="17.6776" r="1.13636" transform="rotate(45 13.2705 17.6776)" fill="white"/>
<circle cx="18.6274" cy="23.0346" r="1.13636" transform="rotate(45 18.6274 23.0346)" fill="white"/>
<circle cx="23.9844" cy="28.3915" r="1.13636" transform="rotate(45 23.9844 28.3915)" fill="white"/>
<circle cx="2.55688" cy="17.6776" r="1.13636" transform="rotate(45 2.55688 17.6776)" fill="white"/>
<circle cx="7.9137" cy="23.0346" r="1.13636" transform="rotate(45 7.9137 23.0346)" fill="white"/>
<circle cx="13.2705" cy="28.3915" r="1.13636" transform="rotate(45 13.2705 28.3915)" fill="white"/>
<circle cx="18.6274" cy="33.7482" r="1.13636" transform="rotate(45 18.6274 33.7482)" fill="white"/>
</g>
</svg>
