<svg width="36" height="34" viewBox="0 0 36 34" fill="none" xmlns="http://www.w3.org/2000/svg">
<path fill-rule="evenodd" clip-rule="evenodd" d="M17.7305 6.14135L15.3705 13.4303C15.109 14.2208 14.3728 14.7568 13.5402 14.7629H5.88196L12.0631 19.2583C12.7354 19.7498 13.0196 20.6152 12.7696 21.4096L10.4095 28.6986L16.5906 24.1872C17.2738 23.7042 18.1872 23.7042 18.8705 24.1872L25.0516 28.6986L22.6915 21.4096C22.4415 20.6152 22.7257 19.7498 23.398 19.2583L29.5791 14.7629H21.9209C21.0883 14.7568 20.3521 14.2208 20.0906 13.4303L17.7305 6.14135ZM15.9003 1.32502C16.1601 0.534392 16.8983 0 17.7305 0C18.5628 0 19.301 0.534392 19.5608 1.32502L22.8681 11.552H33.5447C34.377 11.5565 35.1124 12.095 35.3679 12.8871C35.6235 13.6793 35.3414 14.546 34.6686 15.036L26.031 21.3135L29.3383 31.4763C29.5975 32.2715 29.3141 33.1431 28.6367 33.6337C27.9594 34.1243 27.0429 34.1219 26.3681 33.6277L17.7305 27.3341L9.09296 33.6116C8.42063 34.0996 7.51117 34.1017 6.83661 33.6168C6.16205 33.1318 5.87433 32.2691 6.12279 31.4763L9.43012 21.3295L0.79253 15.036C0.119707 14.546 -0.162364 13.6793 0.0931678 12.8871C0.348699 12.095 1.08405 11.5565 1.91638 11.552H12.593L15.9003 1.32502Z" fill="#0E1317"/>
</svg>
