<svg width="19" height="18" viewBox="0 0 19 18" fill="none" xmlns="http://www.w3.org/2000/svg">
<path fill-rule="evenodd" clip-rule="evenodd" d="M14.1508 11.3904L9.54977 15.5887C9.45242 15.6838 9.37422 15.7976 9.31974 15.9238C9.26526 16.0499 9.23551 16.1858 9.23219 16.3237C9.22886 16.4616 9.25205 16.5988 9.3004 16.7275C9.34874 16.8562 9.4213 16.9739 9.51395 17.0738C9.60659 17.1738 9.71754 17.254 9.84039 17.3099C9.96324 17.3658 10.0956 17.3964 10.2299 17.3998C10.3643 17.4032 10.4979 17.3794 10.6233 17.3298C10.7487 17.2802 10.8634 17.2057 10.9607 17.1106L15.5618 12.9123C15.7584 12.7203 15.8726 12.4559 15.8793 12.1774C15.886 11.8988 15.7847 11.629 15.5976 11.4271C15.4105 11.2253 15.1529 11.1081 14.8816 11.1012C14.6103 11.0943 14.3474 11.1984 14.1508 11.3904ZM18.1077 8.24173L10.9505 0.894748C10.7553 0.701286 10.4931 0.595341 10.2218 0.600262C9.95049 0.605183 9.69218 0.720528 9.50371 0.920949C9.31525 1.12137 9.2121 1.39047 9.2169 1.66898C9.22169 1.9475 9.33405 2.21267 9.5293 2.40613L14.9381 7.95833H1.02246C0.751284 7.95833 0.491233 8.06892 0.299485 8.26576C0.107738 8.46259 0 8.72953 0 9.0079C0 9.28626 0.107738 9.55321 0.299485 9.75004C0.491233 9.94687 0.751284 10.0575 1.02246 10.0575H17.3818C17.5827 10.0566 17.779 9.99501 17.9461 9.88027C18.1131 9.76554 18.2436 9.60276 18.321 9.41238C18.3985 9.22199 18.4196 9.01244 18.3816 8.80982C18.3437 8.60721 18.2484 8.42053 18.1077 8.27319V8.24173Z" fill="#BDC2E6"/>
</svg>
