<svg width="19" height="18" viewBox="0 0 19 18" fill="none" xmlns="http://www.w3.org/2000/svg">
<path fill-rule="evenodd" clip-rule="evenodd" d="M4.84918 6.60956L9.45023 2.41128C9.54758 2.31618 9.62578 2.20235 9.68026 2.07625C9.73474 1.95014 9.76449 1.81422 9.76781 1.67632C9.77114 1.53841 9.74795 1.40119 9.6996 1.27248C9.65126 1.14376 9.5787 1.02609 9.48605 0.926166C9.3934 0.826238 9.28245 0.746029 9.15961 0.690103C9.03676 0.634176 8.90442 0.603637 8.77007 0.600225C8.63572 0.596815 8.50205 0.620556 8.37666 0.670179C8.25127 0.719804 8.13664 0.794292 8.0393 0.889394L3.43825 5.08767C3.24165 5.27974 3.12737 5.54412 3.12066 5.82264C3.11395 6.10116 3.21532 6.37104 3.40242 6.57285C3.58953 6.77467 3.84708 6.8919 4.11841 6.89879C4.38973 6.90568 4.65258 6.80163 4.84918 6.60956ZM0.892277 9.75827L8.04947 17.1053C8.24471 17.2987 8.50686 17.4047 8.77818 17.3997C9.04951 17.3948 9.30782 17.2795 9.49629 17.0791C9.68475 16.8786 9.7879 16.6095 9.7831 16.331C9.77831 16.0525 9.66594 15.7873 9.4707 15.5939L4.06193 10.0417L17.9775 10.0417C18.2487 10.0417 18.5088 9.93108 18.7005 9.73424C18.8923 9.53741 19 9.27047 19 8.9921C19 8.71374 18.8923 8.44679 18.7005 8.24996C18.5088 8.05313 18.2487 7.94253 17.9775 7.94253L1.61824 7.94253C1.41725 7.94339 1.22096 8.00499 1.05391 8.11972C0.886856 8.23445 0.756434 8.39724 0.678974 8.58762C0.601515 8.77801 0.580441 8.98756 0.618378 9.19018C0.656317 9.39279 0.75158 9.57947 0.892277 9.72681L0.892277 9.75827Z" fill="#BDC2E6"/>
</svg>
