<svg width="24" height="24" viewBox="0 0 24 24" fill="none" xmlns="http://www.w3.org/2000/svg">
<path fill-rule="evenodd" clip-rule="evenodd" d="M6.33496 16.0463C5.88802 16.4932 5.88802 17.2178 6.33496 17.6648C6.78189 18.1117 7.50652 18.1117 7.95346 17.6648L11.9998 13.6184L16.0463 17.6649C16.4932 18.1118 17.2179 18.1118 17.6648 17.6649C18.1117 17.218 18.1117 16.4933 17.6648 16.0464L13.6183 11.9999L17.6645 7.95376C18.1114 7.50683 18.1114 6.7822 17.6645 6.33527C17.2175 5.88833 16.4929 5.88833 16.046 6.33527L11.9998 10.3814L7.95379 6.33542C7.50685 5.88848 6.78223 5.88849 6.33529 6.33542C5.88835 6.78236 5.88835 7.50698 6.33529 7.95392L10.3813 11.9999L6.33496 16.0463Z" fill="#DB524E"/>
</svg>
