<svg width="16" height="17" viewBox="0 0 16 17" fill="none" xmlns="http://www.w3.org/2000/svg">
<path d="M0.314788 15.6852C-0.104929 15.263 -0.104929 14.5811 0.314788 14.1589L14.0952 0.378421C14.3598 0.0694968 14.7752 -0.0650664 15.1706 0.0300564C15.5661 0.125179 15.8748 0.433933 15.9699 0.829377C16.0651 1.22482 15.9305 1.64021 15.6216 1.90477L1.84114 15.6852C1.41891 16.1049 0.73701 16.1049 0.314788 15.6852Z" fill="#D1D3F4"/>
<path d="M0.314788 0.378417C0.73701 -0.0413002 1.41891 -0.0413002 1.84114 0.378417L15.6216 14.1589C15.9305 14.4234 16.0651 14.8388 15.9699 15.2343C15.8748 15.6297 15.5661 15.9384 15.1706 16.0336C14.7752 16.1287 14.3598 15.9941 14.0952 15.6852L0.314788 1.90477C-0.104929 1.48254 -0.104929 0.800639 0.314788 0.378417Z" fill="#D1D3F4"/>
</svg>
