<svg width="15" height="16" viewBox="0 0 15 16" fill="none" xmlns="http://www.w3.org/2000/svg">
<path fill-rule="evenodd" clip-rule="evenodd" d="M9.96212 7.79763C11.4272 6.64994 12.003 4.69924 11.396 2.93991C10.7889 1.18059 9.13273 1.52588e-05 7.27162 1.52588e-05C5.41051 1.52588e-05 3.7543 1.18059 3.14726 2.93991C2.54022 4.69924 3.11601 6.64994 4.58112 7.79763C1.81759 8.89824 0.00306972 11.5711 0 14.5457V15.2729C0 15.6745 0.325562 16 0.727162 16C1.12876 16 1.45432 15.6745 1.45432 15.2729V14.5457C1.45432 11.3329 4.05882 8.72839 7.27162 8.72839C10.4844 8.72839 13.0889 11.3329 13.0889 14.5457V15.2729C13.0889 15.6745 13.4145 16 13.8161 16C14.2177 16 14.5432 15.6745 14.5432 15.2729V14.5457C14.5402 11.5711 12.7257 8.89824 9.96212 7.79763ZM4.36297 4.36542C4.36297 2.75902 5.66522 1.45677 7.27162 1.45677C8.87802 1.45677 10.1803 2.75902 10.1803 4.36542C10.1803 5.97182 8.87802 7.27407 7.27162 7.27407C6.5002 7.27407 5.76037 6.96762 5.2149 6.42215C4.66942 5.87667 4.36297 5.13684 4.36297 4.36542Z" fill="#0E1317"/>
</svg>
