<svg width="67" height="42" viewBox="0 0 67 42" fill="none" xmlns="http://www.w3.org/2000/svg">
<path d="M55.3995 20.7225L55.4697 20.6052C55.4717 20.6022 55.4737 20.5991 55.4757 20.5959C55.534 20.506 55.6226 20.3718 55.7389 20.1964C55.803 20.0997 55.8753 19.9909 55.955 19.871C56.163 19.5579 56.4215 19.169 56.7173 18.7208C57.536 17.4804 58.6445 15.7808 59.7837 13.9483C60.9223 12.1169 62.0949 10.1472 63.0404 8.36732C63.971 6.6154 64.7096 4.99695 64.9546 3.86726C65.2063 3.0474 65.2494 2.19964 64.796 1.54193C64.3313 0.867754 63.4698 0.570273 62.3364 0.570273H55.2459C54.252 0.570273 53.4879 0.84611 52.9014 1.2978C52.3231 1.74317 51.9532 2.33181 51.6933 2.90033L51.6888 2.9102L51.6847 2.92027L51.6847 2.92044L51.6843 2.92143L51.6825 2.92586L51.6749 2.94433L51.6441 3.01879C51.6167 3.08474 51.5756 3.1828 51.5214 3.31001C51.4129 3.56445 51.2519 3.93539 51.0427 4.39916C50.624 5.32688 50.0128 6.62495 49.2435 8.10406C47.7036 11.0646 45.5429 14.7255 43.0382 17.5962C42.2173 18.4338 41.6472 18.9615 41.1848 19.2815C40.7372 19.5913 40.4217 19.6846 40.101 19.6846C40.0657 19.6846 39.9341 19.6632 39.79 19.4394C39.6435 19.2121 39.4997 18.7894 39.4997 18.0765V3.67039C39.4997 2.72952 39.3627 1.9245 38.936 1.35143C38.4822 0.741905 37.786 0.5 36.9344 0.5H25.7824C24.3951 0.5 23.4925 1.57689 23.4925 2.68656C23.4925 3.26258 23.7067 3.71564 23.9792 4.12296C24.1126 4.3225 24.2665 4.52029 24.4191 4.71539L24.4469 4.75083C24.5937 4.93842 24.7429 5.12902 24.8936 5.34008C25.5138 6.20853 26.1813 7.45075 26.315 9.79829V20.4657C26.315 21.6297 26.2051 22.1953 26.0575 22.4667C25.9962 22.5793 25.937 22.6238 25.8799 22.6501C25.809 22.6827 25.6979 22.7064 25.507 22.7064C25.352 22.7064 25.0975 22.628 24.733 22.3822C24.3782 22.1429 23.9672 21.7776 23.5107 21.2877C22.5989 20.3091 21.5513 18.8828 20.4593 17.1193C18.2773 13.5954 15.9527 8.78123 14.209 3.65058C13.8611 2.62077 13.485 1.81374 12.9056 1.27505C12.2996 0.711719 11.539 0.5 10.5687 0.5H3.40939C2.30916 0.5 1.53962 0.761319 1.06068 1.2869C0.588146 1.80545 0.5 2.47347 0.5 3.03793C0.5 3.58105 0.6655 4.58682 1.0311 5.9549C1.40054 7.33735 1.98392 9.12476 2.84269 11.2456C4.5602 15.4871 7.38268 21.0706 11.8087 27.4247C17.7307 36.171 26.2007 40.9234 33.9055 40.9234C36.1789 40.9234 37.5947 40.6673 38.4389 40.0893C39.3579 39.46 39.4997 38.5324 39.4997 37.6125V31.077C39.4997 30.5614 39.5254 30.1796 39.5784 29.8948C39.6314 29.61 39.7055 29.458 39.7758 29.371C39.8975 29.2204 40.1295 29.1175 40.8583 29.1175C41.6746 29.1175 43.4055 29.543 47.5945 33.6786C48.7893 34.8984 49.7372 35.9531 50.531 36.852C50.6882 37.03 50.84 37.2026 50.9868 37.3696C51.5774 38.0413 52.0884 38.6225 52.5555 39.1029C53.1403 39.7045 53.6874 40.1815 54.2835 40.5049C54.8913 40.8347 55.529 40.9937 56.2784 40.9937H63.3691C64.4678 40.9937 65.4061 40.7151 65.9738 40.0313C66.5503 39.3368 66.6267 38.3697 66.3299 37.2712L66.3279 37.2636L66.3256 37.2561C65.9902 36.1529 65.2075 34.8492 64.1606 33.4095C63.1071 31.9607 61.7542 30.3324 60.239 28.5745C59.3969 27.5719 58.3493 26.521 57.4326 25.6026C56.4946 24.663 55.7251 23.8918 55.3766 23.4066L55.3766 23.4066L55.3734 23.4023C54.8808 22.7316 54.7766 22.361 54.798 22.0655C54.8222 21.732 55.0055 21.3807 55.3995 20.7225Z" fill="white" stroke="white"/>
</svg>
