<svg width="177" height="40" viewBox="0 0 177 40" fill="none" xmlns="http://www.w3.org/2000/svg">
<mask id="mask0" mask-type="alpha" maskUnits="userSpaceOnUse" x="0" y="0" width="56" height="40">
<path fill-rule="evenodd" clip-rule="evenodd" d="M0 0.459961H55.9872V39.5584H0V0.459961Z" fill="white"/>
</mask>
<g mask="url(#mask0)">
<path fill-rule="evenodd" clip-rule="evenodd" d="M22.3949 28.3878V11.631L36.9404 20.0094L22.3949 28.3878ZM54.8176 6.56524C54.1733 4.16249 52.2765 2.26962 49.8675 1.62732C45.5014 0.459961 27.9934 0.459961 27.9934 0.459961C27.9934 0.459961 10.4859 0.459961 6.11972 1.62732C3.71082 2.26962 1.81393 4.16249 1.17012 6.56524C0 10.9211 0 20.0094 0 20.0094C0 20.0094 0 29.0976 1.17012 33.4535C1.81393 35.8563 3.71082 37.7491 6.11972 38.3915C10.4859 39.5588 27.9934 39.5588 27.9934 39.5588C27.9934 39.5588 45.5014 39.5588 49.8675 38.3915C52.2765 37.7491 54.1733 35.8563 54.8176 33.4535C55.9872 29.0976 55.9872 20.0094 55.9872 20.0094C55.9872 20.0094 55.9872 10.9211 54.8176 6.56524Z" fill="white"/>
</g>
<path fill-rule="evenodd" clip-rule="evenodd" d="M87.4714 32.1937C87.7778 31.3956 87.9318 30.0907 87.9318 28.2798V20.6504C87.9318 18.8931 87.7778 17.6085 87.4714 16.7961C87.164 15.9841 86.6234 15.5776 85.8497 15.5776C85.1022 15.5776 84.5749 15.9841 84.2684 16.7961C83.9611 17.6085 83.808 18.8931 83.808 20.6504V28.2798C83.808 30.0907 83.9541 31.3956 84.2481 32.1937C84.5417 32.9929 85.0753 33.3919 85.8497 33.3919C86.6234 33.3919 87.164 32.9929 87.4714 32.1937ZM81.2655 36.0287C80.1576 35.2839 79.37 34.1248 78.9035 32.5534C78.4363 30.9827 78.2026 28.8921 78.2026 26.2825V22.7276C78.2026 20.0913 78.469 17.974 79.0031 16.3768C79.5368 14.779 80.371 13.614 81.5055 12.8816C82.6397 12.1496 84.1284 11.7832 85.97 11.7832C87.7847 11.7832 89.2392 12.1561 90.3337 12.9019C91.4283 13.6471 92.2288 14.8126 92.7362 16.3965C93.2427 17.9809 93.4971 20.0913 93.4971 22.7276V26.2825C93.4971 28.8921 93.2501 30.9896 92.7565 32.5735C92.2624 34.1579 91.4615 35.3165 90.354 36.0485C89.2462 36.7809 87.7446 37.1469 85.8497 37.1469C83.9011 37.1469 82.373 36.774 81.2655 36.0287Z" fill="white"/>
<path fill-rule="evenodd" clip-rule="evenodd" d="M167.004 16.0357C166.723 16.382 166.536 16.948 166.443 17.7332C166.349 18.519 166.303 19.7102 166.303 21.308V23.0656H170.347V21.308C170.347 19.7374 170.293 18.5456 170.186 17.7332C170.08 16.9212 169.887 16.3489 169.606 16.016C169.326 15.6826 168.892 15.5162 168.304 15.5162C167.718 15.5162 167.283 15.69 167.004 16.0357ZM166.303 26.3411V27.5792C166.303 29.1507 166.349 30.3291 166.443 31.1144C166.536 31.9001 166.729 32.4726 167.024 32.8321C167.317 33.1911 167.771 33.3714 168.385 33.3714C169.212 33.3714 169.779 33.0519 170.086 32.4124C170.393 31.7732 170.56 30.7084 170.587 29.2169L175.351 29.4965C175.379 29.7102 175.391 30.0031 175.391 30.3751C175.391 32.639 174.771 34.33 173.529 35.4486C172.289 36.5664 170.533 37.1259 168.264 37.1259C165.543 37.1259 163.633 36.2744 162.54 34.5696C161.444 32.8656 160.898 30.2294 160.898 26.6606V22.3866C160.898 18.7116 161.465 16.0294 162.6 14.3379C163.734 12.6472 165.676 11.8018 168.425 11.8018C170.32 11.8018 171.775 12.148 172.789 12.8399C173.804 13.5327 174.518 14.6114 174.931 16.0754C175.345 17.5401 175.552 19.5645 175.552 22.147V26.3411H166.303Z" fill="white"/>
<path fill-rule="evenodd" clip-rule="evenodd" d="M67.8113 25.8831L61.5253 3.23486H67.0103L69.2123 13.5006C69.7732 16.0308 70.1866 18.1875 70.4534 19.9714H70.6138C70.8004 18.6933 71.2142 16.5498 71.8549 13.5406L74.137 3.23486H79.6222L73.2563 25.8831V36.7484H67.8113V25.8831Z" fill="white"/>
<path fill-rule="evenodd" clip-rule="evenodd" d="M111.337 12.2632V36.7482H107.012L106.532 33.7529H106.412C105.237 36.0162 103.475 37.1477 101.127 37.1477C99.4987 37.1477 98.2976 36.6154 97.5234 35.5501C96.7492 34.4852 96.3625 32.8204 96.3625 30.5574V12.2632H101.888V30.2374C101.888 31.3299 102.008 32.1087 102.248 32.574C102.488 33.0406 102.888 33.2732 103.449 33.2732C103.93 33.2732 104.39 33.1271 104.83 32.8337C105.271 32.5409 105.598 32.1685 105.811 31.7156V12.2632H111.337Z" fill="white"/>
<path fill-rule="evenodd" clip-rule="evenodd" d="M139.678 12.2632V36.7482H135.353L134.873 33.7529H134.753C133.578 36.0162 131.816 37.1477 129.468 37.1477C127.839 37.1477 126.639 36.6154 125.864 35.5501C125.09 34.4852 124.703 32.8204 124.703 30.5574V12.2632H130.228V30.2374C130.228 31.3299 130.349 32.1087 130.588 32.574C130.829 33.0406 131.23 33.2732 131.79 33.2732C132.271 33.2732 132.731 33.1271 133.172 32.8337C133.611 32.5409 133.938 32.1685 134.153 31.7156V12.2632H139.678Z" fill="white"/>
<path fill-rule="evenodd" clip-rule="evenodd" d="M126.35 7.66889H120.865V36.748H115.46V7.66889H109.975V3.23486H126.35V7.66889Z" fill="white"/>
<path fill-rule="evenodd" clip-rule="evenodd" d="M152.899 26.1644C152.899 27.9487 152.825 29.347 152.679 30.3585C152.532 31.3709 152.285 32.09 151.938 32.5152C151.591 32.9415 151.123 33.1542 150.538 33.1542C150.083 33.1542 149.663 33.0486 149.276 32.8347C148.889 32.6219 148.575 32.3029 148.335 31.8761V17.9759C148.522 17.3106 148.841 16.7644 149.296 16.3382C149.749 15.9129 150.242 15.6991 150.777 15.6991C151.337 15.6991 151.772 15.9189 152.079 16.358C152.384 16.7975 152.599 17.5364 152.719 18.5755C152.839 19.6136 152.899 21.0914 152.899 23.0086V26.1644ZM157.964 16.1769C157.63 14.6329 157.089 13.5142 156.342 12.8215C155.594 12.1299 154.567 11.7833 153.259 11.7833C152.245 11.7833 151.297 12.0697 150.417 12.6421C149.536 13.2145 148.855 13.9671 148.375 14.8991H148.335V1.99707H143.01V36.7479H147.573L148.134 34.4311H148.255C148.682 35.2564 149.322 35.9087 150.177 36.3884C151.03 36.8674 151.978 37.1074 153.02 37.1074C154.887 37.1074 156.262 36.2486 157.143 34.5309C158.024 32.8131 158.464 30.1309 158.464 26.4821V22.6081C158.464 19.8656 158.297 17.7216 157.964 16.1769Z" fill="white"/>
</svg>
